<svg xmlns="http://www.w3.org/2000/svg" width="160" height="160" viewBox="0 0 160 160" role="img" aria-label="Network service app icon">
  <defs>
    <linearGradient id="bg" x1="0" y1="0" x2="1" y2="1"><stop stop-color="#eef2ff"/><stop offset="1" stop-color="#ecfeff"/></linearGradient>
    <linearGradient id="rocket" x1="55" y1="36" x2="106" y2="118" gradientUnits="userSpaceOnUse"><stop stop-color="#7c3aed"/><stop offset="1" stop-color="#06b6d4"/></linearGradient>
    <filter id="shadow" x="-20%" y="-20%" width="140%" height="150%"><feDropShadow dx="0" dy="14" stdDeviation="14" flood-color="#020617" flood-opacity=".14"/></filter>
  </defs>
  <rect x="14" y="14" width="132" height="132" rx="34" fill="url(#bg)" filter="url(#shadow)"/>
  <path d="M80 35c18 12 28 32 25 56l17 17-23 7-19 25-19-25-23-7 17-17C52 67 62 47 80 35Z" fill="#fff" stroke="url(#rocket)" stroke-width="7" stroke-linejoin="round"/>
  <circle cx="80" cy="73" r="10" fill="#dbeafe" stroke="#7c3aed" stroke-width="5"/>
  <path d="M65 120c-8 5-13 12-15 22M95 120c8 5 13 12 15 22" stroke="#06b6d4" stroke-width="6" stroke-linecap="round"/>
</svg>
