<svg xmlns="http://www.w3.org/2000/svg" width="160" height="160" viewBox="0 0 160 160" role="img" aria-label="ChatGPT app icon">
  <defs>
    <linearGradient id="bg" x1="0" y1="0" x2="1" y2="1"><stop stop-color="#111827"/><stop offset="1" stop-color="#020617"/></linearGradient>
    <filter id="shadow" x="-20%" y="-20%" width="140%" height="150%"><feDropShadow dx="0" dy="14" stdDeviation="14" flood-color="#020617" flood-opacity=".24"/></filter>
  </defs>
  <rect x="14" y="14" width="132" height="132" rx="34" fill="url(#bg)" filter="url(#shadow)"/>
  <g fill="none" stroke="#f8fafc" stroke-width="8" stroke-linecap="round" stroke-linejoin="round">
    <path d="M80 39c14 0 24 10 24 23 12 5 18 16 14 29-3 12-14 20-27 19-8 11-22 15-35 8-11-6-16-18-13-30-9-9-10-24-1-34 8-9 23-11 38-15Z" opacity=".95"/>
    <path d="M59 63l21-12 21 12M101 63v25l-21 12-21-12V63M59 88l21-12 21 12" opacity=".95"/>
  </g>
</svg>
