<svg xmlns="http://www.w3.org/2000/svg" width="1000" height="720" viewBox="0 0 1000 720" role="img" aria-label="Premium music membership visual">
  <defs><linearGradient id="bg" x1="0" y1="0" x2="1" y2="1"><stop stop-color="#05201D"/><stop offset="1" stop-color="#111827"/></linearGradient><linearGradient id="green" x1="0" y1="0" x2="1" y2="1"><stop stop-color="#86EFAC"/><stop offset="1" stop-color="#0F766E"/></linearGradient><filter id="s"><feDropShadow dx="0" dy="22" stdDeviation="20" flood-color="#000" flood-opacity="0.28"/></filter></defs>
  <rect width="1000" height="720" fill="url(#bg)"/>
  <circle cx="210" cy="566" r="230" fill="#16A34A" opacity="0.12"/>
  <circle cx="780" cy="150" r="220" fill="#2DD4BF" opacity="0.1"/>
  <g filter="url(#s)">
    <rect x="356" y="92" width="288" height="528" rx="46" fill="#0B1518" stroke="#FFFFFF" stroke-opacity="0.16"/>
    <rect x="398" y="142" width="204" height="150" rx="22" fill="#0E3B35"/>
    <path d="M414 232c50-70 104-70 172-4" fill="none" stroke="#86EFAC" stroke-width="5" opacity="0.85"/>
    <rect x="398" y="324" width="204" height="12" rx="6" fill="#86EFAC" opacity="0.82"/>
    <circle cx="500" cy="384" r="42" fill="url(#green)"/>
    <path d="M489 365v38l34-19-34-19Z" fill="#06201D"/>
    <g fill="#FFFFFF" opacity="0.16"><rect x="398" y="458" width="160" height="14" rx="7"/><rect x="398" y="498" width="136" height="14" rx="7"/><rect x="398" y="538" width="178" height="14" rx="7"/></g>
  </g>
  <g fill="none" stroke="#86EFAC" stroke-width="8" stroke-linecap="round" opacity="0.85">
    <path d="M104 354c26-94 96-88 118 0s92 84 118 0"/>
    <path d="M704 398c22-70 76-64 96 0s76 60 96 0" opacity="0.6"/>
  </g>
  <g filter="url(#s)">
    <rect x="118" y="160" width="150" height="120" rx="28" fill="#0B2F2C"/>
    <path d="M205 194v62c0 16-14 28-31 21-15-6-16-25-1-33 8-4 17-3 24 1v-58l58-12v23l-50 10Z" fill="url(#green)"/>
    <rect x="720" y="508" width="154" height="112" rx="28" fill="#0B2F2C"/>
    <path d="M762 548h70v18h-70zM762 582h100v18H762z" fill="#86EFAC" opacity="0.9"/>
  </g>
</svg>
