<svg xmlns="http://www.w3.org/2000/svg" width="1400" height="820" viewBox="0 0 1400 820" role="img" aria-label="Professional support service visual">
  <defs><linearGradient id="bg" x1="0" y1="0" x2="1" y2="1"><stop stop-color="#F8FBF8"/><stop offset="1" stop-color="#E7F3F1"/></linearGradient><linearGradient id="teal" x1="0" y1="0" x2="1" y2="1"><stop stop-color="#0F766E"/><stop offset="1" stop-color="#0B4F4A"/></linearGradient><linearGradient id="gold" x1="0" y1="0" x2="1" y2="1"><stop stop-color="#F7D28B"/><stop offset="1" stop-color="#B7791F"/></linearGradient><filter id="s"><feDropShadow dx="0" dy="24" stdDeviation="24" flood-color="#0F172A" flood-opacity="0.12"/></filter></defs>
  <rect width="1400" height="820" fill="url(#bg)"/>
  <circle cx="252" cy="170" r="170" fill="#0F766E" opacity="0.07"/>
  <circle cx="1130" cy="608" r="220" fill="#B7791F" opacity="0.08"/>
  <g filter="url(#s)">
    <rect x="238" y="178" width="924" height="464" rx="40" fill="#FFFFFF"/>
    <rect x="764" y="244" width="292" height="306" rx="28" fill="#0B4F4A" opacity="0.96"/>
    <rect x="820" y="304" width="180" height="34" rx="17" fill="#FFFFFF" opacity="0.18"/>
    <rect x="820" y="374" width="156" height="24" rx="12" fill="#F7D28B" opacity="0.7"/>
    <rect x="820" y="432" width="206" height="24" rx="12" fill="#FFFFFF" opacity="0.16"/>
    <circle cx="548" cy="416" r="128" fill="url(#teal)" opacity="0.96"/>
    <path d="M492 420c0-54 40-92 94-92s94 38 94 92v54h-36v-54c0-34-24-58-58-58s-58 24-58 58v54h-36v-54Z" fill="#F8FAFC"/>
    <rect x="472" y="448" width="42" height="80" rx="20" fill="#F7D28B"/>
    <rect x="662" y="448" width="42" height="80" rx="20" fill="#F7D28B"/>
    <path d="M628 528c-28 24-78 24-106 0" fill="none" stroke="#F8FAFC" stroke-width="12" stroke-linecap="round"/>
    <path d="M1056 214 1124 242v48c0 52-32 94-68 108-36-14-68-56-68-108v-48l68-28Z" fill="url(#gold)"/>
    <path d="m1022 300 27 28 58-64" fill="none" stroke="#FFF7ED" stroke-width="14" stroke-linecap="round" stroke-linejoin="round"/>
  </g>
  <g opacity="0.46" stroke="#0F766E" stroke-width="4" fill="none"><path d="M176 646c214-112 314-36 476-144 158-105 272-96 424-18"/><path d="M188 690c240-86 336-8 512-104 134-73 246-64 392 10" opacity="0.5"/></g>
</svg>
